<?xml version="1.0" encoding="UTF-8" standalone="no"?>
<!DOCTYPE svg PUBLIC "-//W3C//DTD SVG 1.1//EN" "http://www.w3.org/Graphics/SVG/1.1/DTD/svg11.dtd">
<svg version="1.1" xmlns="http://www.w3.org/2000/svg" xmlns:xlink="http://www.w3.org/1999/xlink" preserveAspectRatio="xMidYMid meet" viewBox="0 0 640 640" width="640" height="640"><defs><path d="M453.07 331.15C458.59 331.15 463.07 335.62 463.07 341.15C463.07 354.48 463.07 384.46 463.07 397.79C463.07 403.31 458.59 407.79 453.07 407.79C427.77 407.79 361.87 407.79 336.57 407.79C331.05 407.79 326.57 403.31 326.57 397.79C326.57 384.46 326.57 354.48 326.57 341.15C326.57 335.62 331.05 331.15 336.57 331.15C361.87 331.15 427.77 331.15 453.07 331.15Z" id="gLP5ACp8O"></path><path d="M371.37 433.18C376.7 434.61 379.87 440.1 378.44 445.43C370.31 475.79 348.49 557.21 340.35 587.57C338.92 592.9 333.44 596.07 328.11 594.64C307.48 589.11 255.25 575.12 234.62 569.59C229.28 568.16 226.12 562.68 227.55 557.34C235.68 526.98 257.5 445.56 265.63 415.2C267.06 409.87 272.54 406.7 277.88 408.13C298.51 413.66 350.74 427.66 371.37 433.18Z" id="e4RInwIq9"></path><path d="M506.92 472.92C511.72 472.92 515.62 476.82 515.62 481.62C515.62 513.6 515.62 600.85 515.62 632.83C515.62 637.64 511.72 641.53 506.92 641.53C434.21 641.53 224.77 641.53 152.06 641.53C147.25 641.53 143.36 637.64 143.36 632.83C143.36 600.85 143.36 513.6 143.36 481.62C143.36 476.82 147.25 472.92 152.06 472.92C224.77 472.92 434.21 472.92 506.92 472.92Z" id="c5SHSmqC0O"></path><path d="M505.62 398.47C511.14 398.47 515.62 402.94 515.62 408.47C515.62 427.49 515.62 474.55 515.62 493.58C515.62 499.1 511.14 503.58 505.62 503.58C460.91 503.58 336.76 503.58 292.04 503.58C286.52 503.58 282.04 499.1 282.04 493.58C282.04 474.55 282.04 427.49 282.04 408.47C282.04 402.94 286.52 398.47 292.04 398.47C336.76 398.47 460.91 398.47 505.62 398.47Z" id="a2esxLoa9N"></path><path d="M525.41 408.13C530.74 406.7 536.22 409.87 537.65 415.2C546.66 448.8 571.07 539.92 580.07 573.52C581.5 578.85 578.34 584.34 573 585.77C552.37 591.29 500.14 605.29 479.51 610.82C474.18 612.25 468.69 609.08 467.26 603.75C458.26 570.15 433.85 479.03 424.84 445.43C423.42 440.1 426.58 434.61 431.92 433.18C452.55 427.66 504.78 413.66 525.41 408.13Z" id="ac4hSgF79"></path><path d="M254.53 456.13C260.05 456.13 264.53 460.61 264.53 466.13C264.53 479.61 264.53 510.03 264.53 523.5C264.53 529.03 260.05 533.5 254.53 533.5C234.34 533.5 183.77 533.5 163.58 533.5C158.05 533.5 153.58 529.03 153.58 523.5C153.58 510.03 153.58 479.61 153.58 466.13C153.58 460.61 158.05 456.13 163.58 456.13C183.77 456.13 234.34 456.13 254.53 456.13Z" id="b4TTDRXcb"></path><path d="M406.86 453.94C412.1 453.94 416.35 458.19 416.35 463.43C416.35 465.33 416.35 461.53 416.35 463.43C416.35 468.67 412.1 472.92 406.86 472.92C400.15 472.92 389.49 472.92 382.77 472.92C377.53 472.92 373.28 468.67 373.28 463.43C373.28 461.53 373.28 465.33 373.28 463.43C373.28 458.19 377.53 453.94 382.77 453.94C389.49 453.94 400.15 453.94 406.86 453.94Z" id="h2bQbImS0r"></path><path d="M308.83 453.94C314.07 453.94 318.32 458.19 318.32 463.43C318.32 465.33 318.32 461.53 318.32 463.43C318.32 468.67 314.07 472.92 308.83 472.92C302.12 472.92 291.46 472.92 284.74 472.92C279.5 472.92 275.26 468.67 275.26 463.43C275.26 461.53 275.26 465.33 275.26 463.43C275.26 458.19 279.5 453.94 284.74 453.94C291.46 453.94 302.12 453.94 308.83 453.94Z" id="b2LSrT40L7"></path><path d="M108.54 593.28C114.06 593.28 118.54 597.76 118.54 603.28C118.54 610.63 118.54 622.66 118.54 630C118.54 635.52 114.06 640 108.54 640C90.39 640 45.96 640 27.81 640C22.29 640 17.81 635.52 17.81 630C17.81 622.66 17.81 610.63 17.81 603.28C17.81 597.76 22.29 593.28 27.81 593.28C45.96 593.28 90.39 593.28 108.54 593.28Z" id="fqJuGQjrI"></path><path d="M620 593.28C625.52 593.28 630 597.76 630 603.28C630 610.63 630 622.66 630 630C630 635.52 625.52 640 620 640C601.85 640 557.42 640 539.27 640C533.75 640 529.27 635.52 529.27 630C529.27 622.66 529.27 610.63 529.27 603.28C529.27 597.76 533.75 593.28 539.27 593.28C557.42 593.28 601.85 593.28 620 593.28Z" id="f1sv0ixJwe"></path><path d="M522.79 283.04C527.73 283.65 531.24 288.14 530.63 293.08C528.19 312.95 521.97 363.64 519.53 383.51C518.93 388.45 514.44 391.96 509.5 391.36C460.79 385.38 323.59 368.54 274.88 362.57C269.94 361.96 266.43 357.47 267.03 352.53C269.47 332.66 275.69 281.97 278.13 262.09C278.74 257.16 283.23 253.65 288.17 254.25C336.88 260.23 474.08 277.06 522.79 283.04Z" id="cHSZ0uCMD"></path><path d="M530.52 333.96C530.31 335.7 528.72 336.94 526.98 336.73C500.51 333.48 424.28 324.12 397.81 320.87C396.07 320.65 394.83 319.07 395.04 317.32C395.12 316.69 394.97 317.95 395.04 317.32C395.26 315.58 396.85 314.34 398.59 314.55C425.05 317.8 501.29 327.16 527.75 330.41C529.5 330.62 530.74 332.21 530.52 333.96C530.45 334.59 530.6 333.32 530.52 333.96Z" id="k2h1UxunRT"></path><path d="M527.52 331.15C529.27 331.15 530.7 332.57 530.7 334.33C530.7 377.63 530.7 504.37 530.7 547.67C530.7 549.43 529.27 550.86 527.52 550.86C526.88 550.86 528.15 550.86 527.52 550.86C525.76 550.86 524.33 549.43 524.33 547.67C524.33 504.37 524.33 377.63 524.33 334.33C524.33 332.57 525.76 331.15 527.52 331.15C528.15 331.15 526.88 331.15 527.52 331.15Z" id="b3aXCdY99c"></path><path d="M535.4 471.09C540.92 471.09 545.4 475.57 545.4 481.09C545.4 496.32 545.4 532 545.4 547.23C545.4 552.75 540.92 557.23 535.4 557.23C530.25 557.23 524.79 557.23 519.63 557.23C514.11 557.23 509.63 552.75 509.63 547.23C509.63 532 509.63 496.32 509.63 481.09C509.63 475.57 514.11 471.09 519.63 471.09C524.79 471.09 530.25 471.09 535.4 471.09Z" id="f2LCXOJP8W"></path></defs><g><g><g><use xlink:href="#gLP5ACp8O" opacity="1" fill="#2f253c" fill-opacity="1"></use></g><g><use xlink:href="#e4RInwIq9" opacity="1" fill="#4c3b63" fill-opacity="1"></use></g><g><use xlink:href="#c5SHSmqC0O" opacity="1" fill="#ffffff" fill-opacity="1"></use></g><g><use xlink:href="#a2esxLoa9N" opacity="1" fill="#ffffff" fill-opacity="1"></use></g><g><use xlink:href="#ac4hSgF79" opacity="1" fill="#4c3b63" fill-opacity="1"></use></g><g><use xlink:href="#b4TTDRXcb" opacity="1" fill="#000000" fill-opacity="1"></use></g><g><use xlink:href="#h2bQbImS0r" opacity="1" fill="#000000" fill-opacity="1"></use></g><g><use xlink:href="#b2LSrT40L7" opacity="1" fill="#000000" fill-opacity="1"></use></g><g><use xlink:href="#fqJuGQjrI" opacity="1" fill="#ffffff" fill-opacity="1"></use></g><g><use xlink:href="#f1sv0ixJwe" opacity="1" fill="#ffffff" fill-opacity="1"></use></g><g><use xlink:href="#cHSZ0uCMD" opacity="1" fill="#2f253c" fill-opacity="1"></use></g><g><use xlink:href="#k2h1UxunRT" opacity="1" fill="#e7b75a" fill-opacity="1"></use></g><g><use xlink:href="#b3aXCdY99c" opacity="1" fill="#e7b75a" fill-opacity="1"></use></g><g><use xlink:href="#f2LCXOJP8W" opacity="1" fill="#e7b75a" fill-opacity="1"></use></g></g></g></svg>